<svg id="Layer_1" data-name="Layer 1" xmlns="http://www.w3.org/2000/svg" viewBox="0 0 409.22 105.24"><defs><style>.cls-1{font-size:33px;fill:#a70712;font-family:Arial-BoldMT, Arial;}.cls-2{font-weight:700;}.cls-3,.cls-4,.cls-5{fill:#4d4d4d;}.cls-3,.cls-4{font-size:26.53px;font-family:ArialMT, Arial;}.cls-4{letter-spacing:0em;}</style></defs><title>BCNU_logo_2</title><text class="cls-1" transform="translate(0 92.82)"><tspan class="cls-2">C</tspan><tspan class="cls-3" x="23.83" y="0">omputational </tspan><tspan class="cls-2" x="183.12" y="0">N</tspan><tspan class="cls-3" x="206.95" y="0">euroscience </tspan><tspan class="cls-2" x="357.37" y="0">U</tspan><tspan class="cls-4" x="381.2" y="0">nit</tspan></text><g id="_4RH0Ah.tif" data-name="4RH0Ah.tif"><path class="cls-5" d="M192.53,19.36a3.71,3.71,0,0,0-2.17-.63,7.64,7.64,0,0,1-1.46-.17,2.42,2.42,0,0,1-1.83-2.29c-.13-1.41-.24-2.83-.26-4.25,0-1.93,0-3.87.06-5.79a22.35,22.35,0,0,1,.5-3.68,2.69,2.69,0,0,1,2-2,15.81,15.81,0,0,1,6.37-.38A31.21,31.21,0,0,1,202.77,2,2.49,2.49,0,0,1,204.6,4.8c0,.14,0,.29,0,.57.31-.19.54-.32.75-.47a2.84,2.84,0,0,1,3.56.08c1.1.92,2.34,1.66,3.47,2.54a31.65,31.65,0,0,1,4.67,4.61c.84,1,1.6,2.06,2.38,3.1a2.22,2.22,0,0,1-.12,3.25l-.71.8a2.69,2.69,0,0,0,.45,0,2.68,2.68,0,0,1,2.73,1.92,45,45,0,0,1,1.61,4.56,8.76,8.76,0,0,1,.34,2.07c.11,1.78.12,3.56.26,5.33a7.63,7.63,0,0,1-3.38,7A8.94,8.94,0,0,1,217,41.59a24.05,24.05,0,0,1-3.33.56,10.66,10.66,0,0,1-2.19-.29v2.77c.08-.1.19-.22.28-.35a4.44,4.44,0,0,1,2.77-1.58,14.18,14.18,0,0,1,5.55-.28,3.25,3.25,0,0,1,2.4,2.67,19.28,19.28,0,0,1,0,7.54,7.4,7.4,0,0,1-1.89,3.85,21.28,21.28,0,0,1-4.07,3.77,8.77,8.77,0,0,1-4.56,1.42c-5.27,0-10.55,0-15.82,0l-7.41,0a1.64,1.64,0,0,1-1.7-2c.06-.49-.09-.7-.52-.73s-.83.19-.85.69c0,1.24-.45,1.9-1.28,2a11.4,11.4,0,0,1-1.27.07H162.41c-.92,0-1.83,0-2.75-.06a4.13,4.13,0,0,1-.89-.24,11.16,11.16,0,0,1-5.3-3.43c-.5-.56-1-1.12-1.54-1.64a5.72,5.72,0,0,1-1.26-2.18,16.62,16.62,0,0,1-.69-8.64,6.08,6.08,0,0,1,.83-2.1,2.67,2.67,0,0,1,2.34-1.1,11.06,11.06,0,0,1,4,.25,12,12,0,0,0,1.62.36,3.18,3.18,0,0,1,1.93,1.33c.11.13.23.26.37.42V41.91a3.73,3.73,0,0,0-.67.07,6.77,6.77,0,0,1-3.25,0,16,16,0,0,1-4.87-1.54,8,8,0,0,1-2.64-2.77,6.1,6.1,0,0,1-1.06-3.75c.08-2.21.15-4.41.28-6.62a8.47,8.47,0,0,1,.46-2.15,43.21,43.21,0,0,1,1.6-4.24,5.36,5.36,0,0,1,1.35-1.44c.12-.11.37-.1.56-.11s.61,0,1.05,0c-.24-.27-.39-.47-.56-.64a2.56,2.56,0,0,1-.16-3.73c.79-1.06,1.62-2.09,2.49-3.08a33.77,33.77,0,0,1,8-6.89,3.51,3.51,0,0,1,1.92-.74,3.6,3.6,0,0,1,1.87.78l.41.27c0-.31,0-.55,0-.78.07-.9.19-1.86,1.12-2.25A35.57,35.57,0,0,1,172.75,1c.79-.23,1.63-.34,2.43-.55a20.28,20.28,0,0,1,5.47-.37c.29,0,.59,0,.88,0a3.67,3.67,0,0,1,3.91,3.59,35,35,0,0,1,.25,4.65c0,2,0,4,0,6a18,18,0,0,1-.29,2.58,2.55,2.55,0,0,1-2.28,1.72c-.81.07-1.62.18-2.42.31a2.25,2.25,0,0,0-.59.28l0,.13c.82.2,1.64.37,2.44.61a8.08,8.08,0,0,1,1.85.73,2.88,2.88,0,0,1,1.26,3.12,6.68,6.68,0,0,0-.06.83q0,8.45,0,16.91a6.49,6.49,0,0,1-2.82,5.67,13.8,13.8,0,0,0-4.61,5.67,5.48,5.48,0,0,0,.4,5.38,2.59,2.59,0,0,0,2.18,1.19c.67,0,1.34,0,2,0,.33,0,.53-.07.57-.48a2.91,2.91,0,0,1,2.62-2.3,3,3,0,0,1,3,1.51,6.11,6.11,0,0,1,.35,1.19,12.31,12.31,0,0,1,2,0,2.72,2.72,0,0,0,1.79-.44,2.82,2.82,0,0,0,1.28-1.77c.89-2.49.1-4.62-1.4-6.62a19.68,19.68,0,0,0-3.92-3.87A5.5,5.5,0,0,1,187,42.23c0-3,0-6-.05-9s0-6.22-.07-9.34a3.53,3.53,0,0,1,2.87-3.77l2.27-.56ZM196,59.52c.38,0,.72-.07,1.06-.07,4.88,0,9.76,0,14.64,0a6.91,6.91,0,0,0,3.41-1,15.62,15.62,0,0,0,3.37-3,6.74,6.74,0,0,0,1.8-3.67,14.61,14.61,0,0,0,0-5.94,1.42,1.42,0,0,0-1.48-1.22,12.42,12.42,0,0,0-3.83.39,2.36,2.36,0,0,0-1.87,1.45l-.29.67a3.55,3.55,0,0,1-3.8,1.81,1,1,0,0,1-.51-.36,1.59,1.59,0,0,1-.26-1.44c.15-.5.29-1,.45-1.5a8.35,8.35,0,0,0,.54-1.55,6.46,6.46,0,0,0-.06-2.1c-.31-1.41-.72-2.81-1.12-4.2a2,2,0,0,0-1.69-1.58,1.68,1.68,0,0,1-1.59-1.92c0-.75.27-1.34,1.61-1.48a3.06,3.06,0,0,1,3.65,2,34.9,34.9,0,0,1,1.25,3.39A2.29,2.29,0,0,0,214,39.87a27.86,27.86,0,0,0,3.44-.74,5.4,5.4,0,0,0,3-1.93,5.76,5.76,0,0,0,1.33-3.84c-.07-1-.09-2.09-.16-3.14a20.58,20.58,0,0,0-.37-3.5,45.34,45.34,0,0,0-1.55-4.52c-.24-.66-.45-.71-1.13-.63-1,.11-2,.2-3,.26a1.19,1.19,0,0,1-1.14-1.11,2,2,0,0,1,.9-1.69c.7-.61,1.39-1.23,2.09-1.84a.45.45,0,0,0,.06-.74,17.49,17.49,0,0,1-1.08-1.39A25.35,25.35,0,0,0,211.83,10c-1.42-1.19-3-2.24-4.46-3.33a.62.62,0,0,0-.55,0c-.84.5-1.62,1.1-2.49,1.54-1.14.57-2.16.25-2.1-1.26,0-.65.13-1.3.17-2s-.06-.83-.71-1c-1-.31-2-.62-2.95-.89A13.54,13.54,0,0,0,196,2.42a44.24,44.24,0,0,0-5,0,1.52,1.52,0,0,0-1.63,1.28A18.27,18.27,0,0,0,189.09,6c0,1.86,0,3.73.06,5.59a7.37,7.37,0,0,1-.1.82,4.52,4.52,0,0,0-.07.87c.07.78.18,1.56.29,2.33a.87.87,0,0,0,.92.84l1.32.08a4.2,4.2,0,0,1,3,1.47,2,2,0,0,1-1,3.47c-1,.31-2,.49-3,.72A1.55,1.55,0,0,0,189.08,24c0,3.63.05,7.27.07,10.9,0,2.21,0,4.42,0,6.63A4.11,4.11,0,0,0,190.6,45a21.45,21.45,0,0,1,4.58,4.67,8.62,8.62,0,0,1,1.54,7.78C196.53,58.14,196.28,58.79,196,59.52Zm-19.58,0c-.25-.78-.51-1.48-.71-2.2a7.56,7.56,0,0,1,.29-5.18,16.26,16.26,0,0,1,5.33-6.64,4.78,4.78,0,0,0,2-4c0-6,0-12.06,0-18.09a.86.86,0,0,0-.62-.93,6.41,6.41,0,0,0-.65-.21c-1-.24-2.05-.41-3-.72-1.39-.42-2-1.39-1.55-2.61A3.45,3.45,0,0,1,180,16.79a20.29,20.29,0,0,1,2.38-.3c.62-.07.83-.24.94-.85a6.5,6.5,0,0,0,.15-1.21c-.08-3.41.28-6.84-.29-10.24-.1-.59-.14-1.25-.81-1.51A4.08,4.08,0,0,0,181,2.38a18.82,18.82,0,0,0-5.08.27A40,40,0,0,0,170.75,4c-.59.24-.69.45-.6,1.09a16.67,16.67,0,0,1,.19,2c0,1-.39,1.36-1.39,1.3a1.49,1.49,0,0,1-.65-.18c-.81-.49-1.6-1-2.39-1.51a.52.52,0,0,0-.7,0c-.66.48-1.35.91-2,1.37A22.73,22.73,0,0,0,158.73,12c-1.22,1.4-2.42,2.82-3.61,4.25-.39.47-.37.69.09,1.12.84.79,1.72,1.55,2.54,2.36a1.27,1.27,0,0,1,.27,1.41,1.14,1.14,0,0,1-1.23.77c-1-.09-2-.15-3-.3a.74.74,0,0,0-.91.52,13.58,13.58,0,0,0-.56,1.35,23.19,23.19,0,0,0-1.07,3.85c-.26,2.12-.28,4.27-.38,6.41a4.44,4.44,0,0,0,.69,2.61A5.43,5.43,0,0,0,154,38.74a17.47,17.47,0,0,0,4.24,1.11c1.81.25,2.27-.15,3-1.73.36-.78.53-1.64.82-2.45a3.87,3.87,0,0,1,2.18-2.73,5.89,5.89,0,0,1,2-.15,1.5,1.5,0,0,1,1.48,2,1.89,1.89,0,0,1-1.73,1.36,1.39,1.39,0,0,0-1.21.86c-.25.69-.51,1.37-.73,2.07a12,12,0,0,0-.8,4.75,2.12,2.12,0,0,0,.07.48c.29.85.62,1.68.86,2.54a3,3,0,0,1,0,1.17,1,1,0,0,1-1,.83,3.4,3.4,0,0,1-3.71-2.27,2.48,2.48,0,0,0-.42-.71c-.23-.27-.46-.64-.76-.72a12.84,12.84,0,0,0-4.53-.66c-1.08.12-1.54.39-1.67,1.48a27.6,27.6,0,0,0-.18,3.42,12.41,12.41,0,0,0,.81,4.11,6.64,6.64,0,0,0,1.58,2.21,10.5,10.5,0,0,0,3.83,3.06,8.06,8.06,0,0,0,3,.75c4.9-.05,9.8,0,14.7,0Z"/><path class="cls-5" d="M229.74,60.72c-.28.34-.48.81-.8.91a5.55,5.55,0,0,1-1.6,0v-.52c0-5.85,0-11.69,0-17.54,0-.45.16-.56.56-.64.81-.16,1.61-.39,2.46-.61V48.5a12.88,12.88,0,0,1,1.86-.57,6,6,0,0,1,6.91,4.71,8.33,8.33,0,0,1-.92,6.24,5.75,5.75,0,0,1-4.65,2.77A5.48,5.48,0,0,1,229.74,60.72Zm.62-6c0,1,0,2.06,0,3.09a.91.91,0,0,0,.46.85,3.83,3.83,0,0,0,5-1.66,6.71,6.71,0,0,0,.3-3.44,5.14,5.14,0,0,0-.69-1.81c-.89-1.4-3.22-1.52-4.36-1a1.06,1.06,0,0,0-.76,1.15C230.4,52.82,230.36,53.77,230.36,54.72Z"/><path class="cls-5" d="M292.2,54.74A7.25,7.25,0,0,1,291,59.17a6.21,6.21,0,0,1-11.1-2.61,8.25,8.25,0,0,1,.68-5.54,5.78,5.78,0,0,1,5.78-3.18,5.52,5.52,0,0,1,4.67,2.46A7.34,7.34,0,0,1,292.2,54.74Zm-3.13,0c0-.26,0-.52,0-.79a4.27,4.27,0,0,0-.89-2.64,2.71,2.71,0,0,0-2.71-.87,2.85,2.85,0,0,0-2.23,2.1,7.59,7.59,0,0,0,0,4.59,2.73,2.73,0,0,0,2.27,2,2.78,2.78,0,0,0,2.92-1.35A5.61,5.61,0,0,0,289.07,54.71Z"/><path class="cls-5" d="M278.25,58.68c0,.74,0,1.55,0,2.37a.44.44,0,0,1-.25.33,8.61,8.61,0,0,1-4.17.09,3.32,3.32,0,0,1-2.41-2.69,8,8,0,0,1-.14-1.66q0-3,0-6c0-.38-.1-.54-.5-.5s-.62,0-1,0V48.12h1.45c0-.69,0-1.34,0-2s.09-.87.71-1a21,21,0,0,0,2.3-.88v3.87h3.51v2.47h-3.45c0,.19,0,.3,0,.41q0,3,0,5.94c0,.15,0,.3,0,.44a1.63,1.63,0,0,0,1.82,1.69A14.41,14.41,0,0,0,278.25,58.68Z"/><path class="cls-5" d="M259.3,60.57l1-2.33a14.57,14.57,0,0,0,1.88.81,5.43,5.43,0,0,0,1.74.15,1.22,1.22,0,0,0,1.2-.86,1.42,1.42,0,0,0-.39-1.58A9.23,9.23,0,0,0,263,55.67a8.47,8.47,0,0,1-2.84-1.85,3.47,3.47,0,0,1,1.68-5.69,7.71,7.71,0,0,1,5.27.38c.43.17.5.39.31.81s-.43,1.16-.66,1.78a4.73,4.73,0,0,0-3-.83c-.94.05-1.45.56-1.32,1.43a1.32,1.32,0,0,0,.55.85c.8.46,1.65.84,2.49,1.23A4.45,4.45,0,0,1,268,56a3.78,3.78,0,0,1-2.49,5.43,7.37,7.37,0,0,1-5-.24C260.08,61,259.71,60.77,259.3,60.57Z"/><path class="cls-5" d="M298.23,42.38V43c0,4.72,0,9.44,0,14.15a9,9,0,0,0,.24,1.74,1.83,1.83,0,0,0,1.14,1.37,2.4,2.4,0,0,1-2.55,1.36,1.85,1.85,0,0,1-1.69-1.75,12.66,12.66,0,0,1-.1-1.51c0-4.93,0-9.86,0-14.79,0-.42.12-.55.52-.63C296.58,42.83,297.36,42.6,298.23,42.38Z"/><path class="cls-5" d="M245,61.4h-3V48.15h3v1.14c1.74-1.68,3.65-1.75,5.78-1l-1.25,2.6a10.63,10.63,0,0,0-1.39-.43,2.75,2.75,0,0,0-3,2.21,6.46,6.46,0,0,0-.17,1.55c0,2.21,0,4.42,0,6.63Z"/><path class="cls-5" d="M256.47,61.41h-3V52.77h3Z"/><path class="cls-5" d="M191.14,58.91c-1.38.19-2.61-1.46-2.53-2.71a2.66,2.66,0,0,1,2.62-2.46,2.7,2.7,0,0,1,2.48,2.74A2.57,2.57,0,0,1,191.14,58.91Zm0-3.59a1,1,0,0,0,0,2.05,1,1,0,0,0,1-1A1,1,0,0,0,191.18,55.32Z"/><path class="cls-5" d="M191.13,51a2.59,2.59,0,0,1-2.44,2.56A2.67,2.67,0,0,1,186.12,51a2.81,2.81,0,0,1,2.59-2.76C189.92,48.16,191.13,49.59,191.13,51ZM189.6,51a1.19,1.19,0,0,0-.88-1.14c-.47,0-1,.63-1,1.18a1.15,1.15,0,0,0,1,1A1.11,1.11,0,0,0,189.6,51Z"/><path class="cls-5" d="M178.59,55.48a2.44,2.44,0,0,1,2.4-2.55,2.59,2.59,0,0,1,2.58,2.59A2.49,2.49,0,0,1,181,58.1,2.34,2.34,0,0,1,178.59,55.48Zm1.53.05c0,.68.31,1.05.88,1.05a1,1,0,0,0,1-1.07,1.11,1.11,0,0,0-1-1C180.47,54.45,180.12,54.88,180.12,55.53Z"/><path class="cls-5" d="M253.3,49.71a1.77,1.77,0,0,1,1.76-1.79,1.76,1.76,0,0,1,1.74,1.8,1.75,1.75,0,1,1-3.49,0Z"/><path class="cls-5" d="M196.9,21.89A1.22,1.22,0,0,1,198,23.53a5.37,5.37,0,0,1-1.67,2.13,13.47,13.47,0,0,0-1.71,1.85,5.39,5.39,0,0,0-.7,2.62,7.76,7.76,0,0,1-.5,1.82,1.37,1.37,0,0,1-1.41.87,1.34,1.34,0,0,1-.87-.4,4.33,4.33,0,0,1-.87-2.6,24.73,24.73,0,0,1-.1-3.81,3.29,3.29,0,0,1,1.9-3,12.46,12.46,0,0,1,2.35-.63C195.34,22.15,196.21,22,196.9,21.89Zm-.7,1.82-.06-.1a3.06,3.06,0,0,0-.32,0c-.7.15-1.4.31-2.11.44A2.13,2.13,0,0,0,192,25.4a6.92,6.92,0,0,0-.25,3.29c.05.77.21,1.54.33,2.31h.22a13.27,13.27,0,0,0,.18-1.32,6.34,6.34,0,0,1,2.57-5C195.45,24.41,195.82,24,196.2,23.71Z"/><path class="cls-5" d="M182.59,27.57c-.22,1.27-.47,2.64-.72,4a1.57,1.57,0,0,1-.16.41,1.39,1.39,0,0,1-2.45.22A4.08,4.08,0,0,1,178.5,30a6.7,6.7,0,0,0-.63-2.49,6.57,6.57,0,0,0-1.74-1.89,4.38,4.38,0,0,1-1.65-2.07A1.16,1.16,0,0,1,175.78,22c1.47.27,2.94.57,4.39,1a2.85,2.85,0,0,1,2,2.13A24.74,24.74,0,0,1,182.59,27.57Zm-6.14-4-.08.2c.39.34.78.68,1.18,1a6.06,6.06,0,0,1,2.4,4.36,17.38,17.38,0,0,0,.33,1.85h.21c.08-.42.17-.84.23-1.26a10.11,10.11,0,0,0,.15-3.31c-.16-.82-.37-1.69-1.21-2A29.91,29.91,0,0,0,176.45,23.61Z"/></g></svg>